<?xml version="1.0" encoding="UTF-8"?>
<svg id="Anglais" xmlns="http://www.w3.org/2000/svg" viewBox="0 0 283.46 283.46">
  <defs>
    <style>
      .cls-1 {
        fill: #1f55a2;
      }

      .cls-2 {
        fill: #f0f0f0;
      }

      .cls-3 {
        fill: #d70f29;
      }
    </style>
  </defs>
  <rect class="cls-1" x="0" width="283.47" height="283.47"/>
  <polygon class="cls-2" points="122.84 0 122.84 122.84 0 122.84 0 103.94 77.39 103.94 0 26.55 0 0 26.59 0 103.94 77.35 103.94 0 122.84 0"/>
  <polygon class="cls-3" points="103.94 103.94 85.84 103.94 0 18.1 0 0 103.94 103.94"/>
  <polygon class="cls-2" points="0 160.63 122.84 160.63 122.84 283.47 103.94 283.47 103.94 206.08 26.55 283.47 0 283.47 0 256.88 77.35 179.53 0 179.53 0 160.63"/>
  <polygon class="cls-3" points="103.94 179.53 103.94 197.63 18.1 283.47 0 283.47 103.94 179.53"/>
  <polygon class="cls-2" points="283.47 122.84 160.63 122.84 160.63 0 179.53 0 179.53 77.39 256.92 0 283.47 0 283.47 26.59 206.12 103.94 283.47 103.94 283.47 122.84"/>
  <polygon class="cls-3" points="179.53 103.94 179.53 85.84 265.37 0 283.47 0 179.53 103.94"/>
  <polygon class="cls-2" points="160.63 283.47 160.63 160.63 283.47 160.63 283.47 179.53 206.08 179.53 283.47 256.92 283.47 283.47 256.88 283.47 179.53 206.12 179.53 283.47 160.63 283.47"/>
  <polygon class="cls-3" points="179.53 179.53 197.63 179.53 283.47 265.37 283.47 283.47 179.53 179.53"/>
  <polygon class="cls-3" points="283.48 122.84 283.48 160.64 160.64 160.64 160.64 283.48 122.84 283.48 122.84 160.64 0 160.64 0 122.84 122.84 122.84 122.84 0 160.64 0 160.64 122.84 283.48 122.84"/>
</svg>